HIERARCHY
ROOT pelvis
{
	OFFSET 0.000000 0.000000 0.000000
	CHANNELS 6 Xposition Yposition Zposition Zrotation Xrotation Yrotation
	JOINT lfemur
	{
		OFFSET 11.446000 0.000000 0.000000
		CHANNELS 3 Zrotation Xrotation Yrotation
		JOINT ltibia
		{
			OFFSET 0.000000 -42.030400 0.000000
			CHANNELS 3 Zrotation Xrotation Yrotation
			JOINT lfoot
			{
				OFFSET 0.000000 -39.930200 0.000000
				CHANNELS 3 Zrotation Xrotation Yrotation
				JOINT ltoes
				{
					OFFSET 0.000000 0.000000 11.775800
					CHANNELS 3 Zrotation Xrotation Yrotation
					End Site
					{
					    OFFSET 0.000000 0.000000 5.000000
					}
				}
			}
		}
	}
	JOINT rfemur
	{
		OFFSET -11.446000 0.000000 0.000000
		CHANNELS 3 Zrotation Xrotation Yrotation
		JOINT rtibia
		{
			OFFSET 0.000000 -42.030400 0.000000
			CHANNELS 3 Zrotation Xrotation Yrotation
			JOINT rfoot
			{
				OFFSET 0.000000 -39.930200 0.000000
				CHANNELS 3 Zrotation Xrotation Yrotation
				JOINT rtoes
				{
					OFFSET 0.000000 0.000000 11.775800
					CHANNELS 3 Zrotation Xrotation Yrotation
					End Site
					{
					    OFFSET 0.000000 0.000000 5.000000
					}
				}
			}
		}
	}
	JOINT thorax
	{
		OFFSET 0.000000 11.255600 -5.000000
		CHANNELS 3 Zrotation Xrotation Yrotation
		JOINT head
		{
			OFFSET 0.000000 43.799300 0.000000
			CHANNELS 3 Zrotation Xrotation Yrotation
			End Site
			{
			    OFFSET 0.000000 5.000000 0.000000
			}
		}
		JOINT lclavicle
		{
			OFFSET 0.000000 39.863000 0.000000
			CHANNELS 3 Zrotation Xrotation Yrotation
			JOINT lhumerus
			{
				OFFSET 17.380600 4.958300 0.000000
				CHANNELS 3 Zrotation Xrotation Yrotation
				JOINT lradius
				{
					OFFSET 0.000000 -27.561300 0.000000
					CHANNELS 3 Zrotation Xrotation Yrotation
					JOINT lhand
					{
						OFFSET 0.000000 -26.933000 0.000000
						CHANNELS 3 Zrotation Xrotation Yrotation
						End Site
						{
						    OFFSET 0.000000 -5.000000 0.000000
						}
					}
				}
			}
		}
		JOINT rclavicle
		{
			OFFSET 0.000000 39.863000 0.000000
			CHANNELS 3 Zrotation Xrotation Yrotation
			JOINT rhumerus
			{
				OFFSET -17.380600 4.958300 0.000000
				CHANNELS 3 Zrotation Xrotation Yrotation
				JOINT rradius
				{
					OFFSET 0.000000 -27.561300 0.000000
					CHANNELS 3 Zrotation Xrotation Yrotation
					JOINT rhand
					{
						OFFSET 0.000000 -26.933000 0.000000
						CHANNELS 3 Zrotation Xrotation Yrotation
						End Site
						{
						    OFFSET 0.000000 -5.000000 0.000000
						}
					}
				}
			}
		}
	}
}
MOTION
Frames:	10
Frame Time:	0.0333333
58.339400 87.361300 4.593300 -2.665537 -3.206782 -86.743214 -4.934817 1.744863 -8.539945 -0.000000 15.310139 -0.000000 -0.000000 2.044828 9.174362 0.000000 -1.413267 -0.000000 -2.030505 2.029744 -5.675438 -0.000000 17.135070 0.000000 -0.000000 -1.137729 -5.506673 0.000000 -29.542138 -0.000000 -7.672064 1.721177 -1.242545 23.102534 22.769731 -3.834082 -3.529304 0.000000 2.871319 82.768501 -8.541582 64.282775 -0.000001 -11.608639 -57.461239 9.462574 0.635889 -0.000000 4.808424 0.000000 -0.472602 -75.974337 7.256146 -63.939447 0.000000 -21.487537 34.202319 -11.899108 0.620681 -0.000000 
58.306200 87.364500 4.545100 -2.616378 -3.179279 -86.866366 -4.893527 1.800102 -8.461186 -0.000000 15.152327 0.000000 0.000000 2.060032 9.208284 -0.000000 -1.410951 -0.000000 -1.993275 2.006431 -5.710146 -0.000000 17.085677 -0.000000 -0.000000 -1.114617 -5.334841 -0.000000 -29.541418 -0.000000 -7.646757 1.508318 -1.105696 23.175810 22.797456 -3.983750 -3.576023 0.000000 2.807499 82.859387 -8.442083 64.349025 -0.000001 -11.563524 -57.541455 9.517373 0.796402 0.000000 4.789063 0.000000 -0.381699 -75.955962 7.228425 -64.095400 0.000001 -21.425412 34.188568 -11.869201 0.610560 0.000000 
58.291900 87.369500 4.514100 -2.560206 -3.171141 -86.990876 -4.876174 1.799230 -8.412122 -0.000000 15.076730 0.000000 0.000000 2.045533 9.280854 -0.000000 -1.409577 0.000000 -1.964458 1.944132 -5.538272 0.000000 17.059969 -0.000000 0.000000 -1.098760 -5.379632 0.000000 -29.541800 -0.000000 -7.643374 1.326794 -1.004421 23.295195 22.772395 -4.175593 -3.560678 -0.000000 2.740042 82.905078 -8.279698 64.753350 0.000000 -11.402514 -57.865522 9.409053 0.790796 0.000000 4.800267 0.000000 -0.409273 -75.937539 7.100552 -63.820082 0.000001 -21.533982 34.016803 -11.958237 0.640452 0.000000 
58.295700 87.374400 4.506600 -2.520225 -3.180009 -87.206019 -4.896361 1.814949 -8.266682 0.000000 14.986135 -0.000000 0.000000 2.077423 9.344640 -0.000000 -1.407720 -0.000000 -1.992601 1.847285 -5.410149 0.000000 17.098615 -0.000000 -0.000000 -1.152541 -5.297814 0.000000 -29.541691 -0.000000 -7.631993 1.078494 -0.842366 23.283836 22.830107 -4.210904 -3.644469 -0.000000 2.831219 82.985987 -8.198808 64.733281 -0.000000 -11.294027 -57.524703 9.641350 0.903527 -0.000000 4.819703 0.000000 -0.399194 -76.000497 6.971741 -63.795023 0.000001 -21.495436 34.020933 -11.760633 0.572664 -0.000000 
58.332900 87.373000 4.521000 -2.417946 -3.192432 -87.391134 -4.937159 1.685281 -8.133727 0.000000 15.009048 0.000000 0.000000 2.083832 9.375333 -0.000000 -1.414710 -0.000000 -2.046681 1.596550 -5.341278 0.000000 17.265846 -0.000000 -0.000000 -1.117772 -5.219440 -0.000000 -29.542408 -0.000000 -7.582477 0.914582 -0.679989 23.236954 22.815956 -4.268670 -3.732321 0.000000 2.816645 83.014198 -7.968927 65.099172 0.000000 -11.295663 -57.476772 9.461827 0.733308 0.000000 4.852615 -0.000000 -0.314354 -76.125446 7.074613 -63.396693 -0.000000 -21.510802 33.812692 -11.916186 0.625344 0.000000 
58.361800 87.375300 4.539000 -2.395281 -3.166106 -87.499862 -4.927753 1.628498 -8.015852 0.000000 15.051128 -0.000000 0.000000 2.065393 9.344074 -0.000000 -1.409577 0.000000 -2.036900 1.521082 -5.254794 0.000000 17.288030 -0.000000 -0.000000 -1.052470 -5.195315 -0.000000 -29.542477 -0.000000 -7.503959 0.890231 -0.638369 23.146895 22.784625 -4.225533 -3.743306 0.000000 2.903479 82.982616 -7.842082 65.584171 0.000000 -11.176405 -57.690087 9.410270 0.654626 0.000000 4.836973 0.000000 -0.218547 -76.188739 7.117280 -63.335425 0.000000 -21.473287 33.806003 -11.845133 0.601153 0.000000 
58.375500 87.378900 4.575300 -2.395426 -3.193556 -87.497069 -4.965116 1.586145 -8.049965 0.000000 15.123980 -0.000000 0.000000 2.081060 9.409954 0.000000 -1.411389 -0.000000 -2.095368 1.530021 -5.221798 -0.000000 17.268035 -0.000000 0.000000 -1.089176 -5.163326 -0.000000 -29.542647 -0.000000 -7.470233 0.951779 -0.658241 23.062741 22.716091 -4.169304 -3.829002 -0.000000 2.854973 83.007919 -7.632642 66.091333 0.000001 -11.088530 -58.106848 9.450456 0.768172 -0.000000 4.818925 -0.000000 -0.179059 -76.188162 7.183574 -63.336384 0.000001 -21.530727 33.814349 -11.902613 0.620285 0.000000 
58.425900 87.373500 4.627300 -2.337772 -3.200504 -87.459013 -5.029272 1.454477 -8.072720 -0.000000 15.197090 0.000000 -0.000000 2.058934 9.335984 -0.000000 -1.409842 0.000000 -2.156162 1.410327 -5.318813 0.000000 17.338970 -0.000000 -0.000000 -1.045582 -5.067260 0.000000 -29.542494 -0.000000 -7.409949 0.997752 -0.663102 23.016931 22.594957 -4.155548 -3.982294 0.000000 2.952316 83.026231 -7.540350 65.291774 0.000000 -11.202262 -57.532461 9.470870 0.889722 0.000000 4.758965 0.000000 -0.299886 -76.188055 7.058706 -63.438255 -0.000000 -21.439830 34.034195 -11.871438 0.609406 -0.000000 
58.462600 87.394300 4.691500 -2.256905 -3.209879 -87.529411 -5.063703 1.315700 -7.920295 0.000000 15.248015 -0.000000 -0.000000 2.168623 9.294704 -0.000000 -1.408434 -0.000000 -2.214095 1.336237 -5.177361 -0.000000 17.250382 -0.000000 -0.000000 -0.961836 -5.093373 0.000000 -29.542405 -0.000000 -7.350960 0.932795 -0.582862 23.017673 22.572527 -4.196876 -4.116716 0.000000 2.967130 83.042683 -7.450221 65.487106 -0.000000 -11.107116 -57.758442 9.580041 0.914002 -0.000000 4.730443 0.000000 -0.311476 -76.170834 7.128341 -63.296351 0.000001 -21.461848 33.860022 -11.827860 0.594146 0.000000 
58.560700 87.427200 4.774300 -2.034124 -3.116220 -87.539846 -5.046591 1.002862 -8.016893 0.000000 15.291817 0.000000 0.000000 2.245604 9.371151 -0.000000 -1.410738 0.000000 -2.134316 1.219986 -4.795186 -0.000000 16.875572 -0.000000 0.000000 -0.695271 -5.331136 0.000000 -29.542599 -0.000000 -7.177908 0.811175 -0.580304 22.941054 22.656567 -4.066114 -4.302829 -0.000000 3.020264 82.991318 -7.460782 65.576674 -0.000001 -11.167606 -57.428940 9.899581 0.796813 0.000000 4.684928 0.000000 -0.261084 -76.039760 7.217932 -63.442911 0.000001 -21.547314 33.863356 -11.578638 0.508976 0.000000 
